<svg xmlns="http://www.w3.org/2000/svg" viewBox="0 0.68 88.51 88.51" role="img" aria-label="Gitkeen">
  <!-- The Gitkeen mark, light or dark to match the browser. -->
  <style>
    @media (prefers-color-scheme: dark) {
      .tile { fill: #552a26; } .curve { stroke: #e3e3e6; } .line { stroke: #f4553f; }
      .red { fill: #f4553f; } .blue { fill: #4a8fe0; }
    }
  </style>
  <rect class="tile" x="0" y="0.68" width="88.51" height="88.51" rx="19.87" fill="#fdeceb" />
  <g transform="translate(12.80 11.52) scale(1.9658)" fill="none" stroke-width="2.2">
    <path d="M24 4 H16 a7 7 0 0 0 0 14 H24" stroke="#1c1c1f" class="curve" />
    <path d="M24 4 V25 a5 5 0 0 1 -5 5 H10" stroke="#f03c2e" class="line" />
  </g>
  <path class="blue" fill="#2f6fd0" transform="translate(59.98 19.38) scale(0.7000) translate(-170.42 -8.53)" d="M170.379 16.281c-4.961 0-7.832-2.87-7.832-7.836 0-4.957 2.871-7.656 7.832-7.656 5.05 0 7.922 2.7 7.922 7.656 0 4.965-2.871 7.836-7.922 7.836Z" />
  <path class="red" fill="#f03c2e" transform="translate(30.49 33.14) scale(0.7000) translate(-170.42 -8.53)" d="M170.379 16.281c-4.961 0-7.832-2.87-7.832-7.836 0-4.957 2.871-7.656 7.832-7.656 5.05 0 7.922 2.7 7.922 7.656 0 4.965-2.871 7.836-7.922 7.836Z" />
  <path class="blue" fill="#2f6fd0" transform="translate(28.53 70.49) scale(0.7000) translate(-170.42 -8.53)" d="M170.379 16.281c-4.961 0-7.832-2.87-7.832-7.836 0-4.957 2.871-7.656 7.832-7.656 5.05 0 7.922 2.7 7.922 7.656 0 4.965-2.871 7.836-7.922 7.836Z" />
</svg>
